ffmpeg started on 2025-04-30 at 18:16:31
Report written to "D:\Convert\FFMetrics\reports\psnr_report-6.txt"
Log level: 32
Command line:
ffmpeg -hide_banner -nostdin -i "G:\\\xc0\xed\xe8\xec\xe5\\\xce\xed\xe3\xee\xe8\xed\xe3\xe8\\!_35_\xcb\xe5\xf2\xee_2024\\JamClub\\\xcc\xe5\xf7 \xe8 \xe6\xe5\xe7\xeb \xc2\xe8\xf1\xf2\xee\xf0\xe8\xe8\\JamClub_Tsue_to_Tsurugi_no_Wistoria_09_1080p_HEVC.mkv" -i "G:\\\xc0\xed\xe8\xec\xe5\\\xce\xed\xe3\xee\xe8\xed\xe3\xe8\\!_35_\xcb\xe5\xf2\xee_2024\\JamClub\\\xcc\xe5\xf7 \xe8 \xe6\xe5\xe7\xeb \xc2\xe8\xf1\xf2\xee\xf0\xe8\xe8\\JamClub_Tsue_to_Tsurugi_no_Wistoria_09_1080p.mp4" -lavfi "[0:v]settb=AVTB,setpts=PTS-STARTPTS,format=pix_fmts=yuv420p10,fps=24000/1001,scale=1920:1080:flags=bicubic[main];[1:v]settb=AVTB,setpts=PTS-STARTPTS,format=pix_fmts=yuv420p,fps=24000/1001,scale=1920:1080:flags=bicubic[ref];[main][ref]psnr=eof_action=endall:stats_file='D\\:/Convert/FFMetrics/logs/psnr_logfile-6.txt'" -f null -
Input #0, matroska,webm, from 'G:\Аниме\Онгоинги\!_35_Лето_2024\JamClub\Меч и жезл Вистории\JamClub_Tsue_to_Tsurugi_no_Wistoria_09_1080p_HEVC.mkv':
  Metadata:
    COMPATIBLE_BRANDS: isomiso2avc1mp41
    MAJOR_BRAND     : isom
    MINOR_VERSION   : 512
    ENCODER         : Lavf61.7.100
  Duration: 00:24:08.41, start: -0.001000, bitrate: 1276 kb/s
  Stream #0:0: Video: hevc (Main 10), yuv420p10le(tv, bt709, progressive), 1920x1080 [SAR 1:1 DAR 16:9], 23.98 fps, 23.98 tbr, 1k tbn (default)
      Metadata:
        HANDLER_NAME    : VideoHandler
        VENDOR_ID       : [0][0][0][0]
        ENCODER         : Lavc61.19.100 libx265
        BPS             : 1078406
        DURATION        : 00:24:08.321708333
        NUMBER_OF_FRAMES: 34725
        NUMBER_OF_BYTES : 195234892
        _STATISTICS_WRITING_APP: mkvpropedit v66.0.0 ('Josie') 64-bit
        _STATISTICS_WRITING_DATE_UTC: 2025-04-29 13:12:02
        _STATISTICS_TAGS: BPS DURATION NUMBER_OF_FRAMES NUMBER_OF_BYTES
  Stream #0:1(eng): Audio: aac (LC), 48000 Hz, stereo, fltp (default)
      Metadata:
        HANDLER_NAME    : SoundHandler
        VENDOR_ID       : [0][0][0][0]
        ENCODER         : Lavc61.19.100 aac
        BPS             : 193732
        DURATION        : 00:24:08.365000000
        NUMBER_OF_FRAMES: 67893
        NUMBER_OF_BYTES : 35074492
        _STATISTICS_WRITING_APP: mkvpropedit v66.0.0 ('Josie') 64-bit
        _STATISTICS_WRITING_DATE_UTC: 2025-04-29 13:12:02
        _STATISTICS_TAGS: BPS DURATION NUMBER_OF_FRAMES NUMBER_OF_BYTES
Input #1, mov,mp4,m4a,3gp,3g2,mj2, from 'G:\Аниме\Онгоинги\!_35_Лето_2024\JamClub\Меч и жезл Вистории\JamClub_Tsue_to_Tsurugi_no_Wistoria_09_1080p.mp4':
  Metadata:
    major_brand     : isom
    minor_version   : 512
    compatible_brands: isomiso2avc1mp41
    encoder         : Lavf60.16.100
  Duration: 00:24:08.39, start: 0.000000, bitrate: 4475 kb/s
  Stream #1:0[0x1](und): Video: h264 (High) (avc1 / 0x31637661), yuv420p(progressive), 1920x1080 [SAR 1:1 DAR 16:9], 4277 kb/s, 23.98 fps, 23.98 tbr, 90k tbn (default)
      Metadata:
        handler_name    : VideoHandler
        vendor_id       : [0][0][0][0]
  Stream #1:1[0x2](eng): Audio: aac (LC) (mp4a / 0x6134706D), 48000 Hz, stereo, fltp, 191 kb/s (default)
      Metadata:
        handler_name    : SoundHandler
        vendor_id       : [0][0][0][0]
Stream mapping:
  Stream #0:0 (hevc) -> settb:default
  Stream #1:0 (h264) -> settb:default
  psnr:default -> Stream #0:0 (wrapped_avframe)
  Stream #0:1 -> #0:1 (aac (native) -> pcm_s16le (native))
Output #0, null, to 'pipe:':
  Metadata:
    COMPATIBLE_BRANDS: isomiso2avc1mp41
    MAJOR_BRAND     : isom
    MINOR_VERSION   : 512
    encoder         : Lavf61.7.100
  Stream #0:0: Video: wrapped_avframe, yuv420p10le(tv, bt709, progressive), 1920x1080 [SAR 1:1 DAR 16:9], q=2-31, 200 kb/s, 23.98 fps, 23.98 tbn
      Metadata:
        encoder         : Lavc61.19.100 wrapped_avframe
  Stream #0:1(eng): Audio: pcm_s16le, 48000 Hz, stereo, s16, 1536 kb/s (default)
      Metadata:
        HANDLER_NAME    : SoundHandler
        VENDOR_ID       : [0][0][0][0]
        _STATISTICS_TAGS: BPS DURATION NUMBER_OF_FRAMES NUMBER_OF_BYTES
        BPS             : 193732
        DURATION        : 00:24:08.365000000
        NUMBER_OF_FRAMES: 67893
        NUMBER_OF_BYTES : 35074492
        _STATISTICS_WRITING_APP: mkvpropedit v66.0.0 ('Josie') 64-bit
        _STATISTICS_WRITING_DATE_UTC: 2025-04-29 13:12:02
        encoder         : Lavc61.19.100 pcm_s16le
frame=  115 fps=0.0 q=-0.0 size=N/A time=00:00:04.79 bitrate=N/A speed=9.27x    frame=  276 fps=268 q=-0.0 size=N/A time=00:00:11.51 bitrate=N/A speed=11.2x    frame=  481 fps=312 q=-0.0 size=N/A time=00:00:20.06 bitrate=N/A speed=  13x    frame=  740 fps=358 q=-0.0 size=N/A time=00:00:30.86 bitrate=N/A speed=14.9x    frame= 1004 fps=390 q=-0.0 size=N/A time=00:00:41.87 bitrate=N/A speed=16.3x    frame= 1265 fps=410 q=-0.0 size=N/A time=00:00:52.76 bitrate=N/A speed=17.1x    frame= 1535 fps=426 q=-0.0 size=N/A time=00:01:04.02 bitrate=N/A speed=17.8x    frame= 1784 fps=433 q=-0.0 size=N/A time=00:01:14.40 bitrate=N/A speed=  18x    frame= 2012 fps=434 q=-0.0 size=N/A time=00:01:23.91 bitrate=N/A speed=18.1x    frame= 2224 fps=431 q=-0.0 size=N/A time=00:01:32.75 bitrate=N/A speed=  18x    frame= 2430 fps=429 q=-0.0 size=N/A time=00:01:41.39 bitrate=N/A speed=17.9x    frame= 2674 fps=432 q=-0.0 size=N/A time=00:01:51.52 bitrate=N/A speed=  18x    frame= 2917 fps=436 q=-0.0 size=N/A time=00:02:01.66 bitrate=N/A speed=18.2x    frame= 3126 fps=433 q=-0.0 size=N/A time=00:02:10.38 bitrate=N/A speed=18.1x    frame= 3314 fps=429 q=-0.0 size=N/A time=00:02:18.22 bitrate=N/A speed=17.9x    frame= 3514 fps=426 q=-0.0 size=N/A time=00:02:26.56 bitrate=N/A speed=17.8x    frame= 3750 fps=428 q=-0.0 size=N/A time=00:02:36.40 bitrate=N/A speed=17.9x    frame= 4017 fps=433 q=-0.0 size=N/A time=00:02:47.54 bitrate=N/A speed=18.1x    frame= 4242 fps=433 q=-0.0 size=N/A time=00:02:56.92 bitrate=N/A speed=18.1x    frame= 4477 fps=434 q=-0.0 size=N/A time=00:03:06.72 bitrate=N/A speed=18.1x    frame= 4669 fps=432 q=-0.0 size=N/A time=00:03:14.73 bitrate=N/A speed=  18x    frame= 4843 fps=427 q=-0.0 size=N/A time=00:03:21.99 bitrate=N/A speed=17.8x    frame= 5036 fps=425 q=-0.0 size=N/A time=00:03:30.04 bitrate=N/A speed=17.7x    frame= 5200 fps=420 q=-0.0 size=N/A time=00:03:36.88 bitrate=N/A speed=17.5x    frame= 5367 fps=416 q=-0.0 size=N/A time=00:03:43.84 bitrate=N/A speed=17.4x    frame= 5563 fps=415 q=-0.0 size=N/A time=00:03:52.02 bitrate=N/A speed=17.3x    frame= 5761 fps=414 q=-0.0 size=N/A time=00:04:00.28 bitrate=N/A speed=17.3x    frame= 5997 fps=416 q=-0.0 size=N/A time=00:04:10.12 bitrate=N/A speed=17.3x    frame= 6237 fps=417 q=-0.0 size=N/A time=00:04:20.13 bitrate=N/A speed=17.4x    frame= 6520 fps=422 q=-0.0 size=N/A time=00:04:31.93 bitrate=N/A speed=17.6x    frame= 6762 fps=423 q=-0.0 size=N/A time=00:04:42.03 bitrate=N/A speed=17.7x    frame= 7001 fps=424 q=-0.0 size=N/A time=00:04:52.00 bitrate=N/A speed=17.7x    frame= 7250 fps=426 q=-0.0 size=N/A time=00:05:02.38 bitrate=N/A speed=17.8x    frame= 7476 fps=427 q=-0.0 size=N/A time=00:05:11.81 bitrate=N/A speed=17.8x    frame= 7746 fps=429 q=-0.0 size=N/A time=00:05:23.07 bitrate=N/A speed=17.9x    frame= 8016 fps=432 q=-0.0 size=N/A time=00:05:34.33 bitrate=N/A speed=  18x    frame= 8265 fps=433 q=-0.0 size=N/A time=00:05:44.71 bitrate=N/A speed=18.1x    frame= 8513 fps=435 q=-0.0 size=N/A time=00:05:55.06 bitrate=N/A speed=18.1x    frame= 8759 fps=436 q=-0.0 size=N/A time=00:06:05.32 bitrate=N/A speed=18.2x    frame= 8998 fps=436 q=-0.0 size=N/A time=00:06:15.29 bitrate=N/A speed=18.2x    frame= 9202 fps=435 q=-0.0 size=N/A time=00:06:23.80 bitrate=N/A speed=18.2x    frame= 9453 fps=437 q=-0.0 size=N/A time=00:06:34.26 bitrate=N/A speed=18.2x    frame= 9737 fps=439 q=-0.0 size=N/A time=00:06:46.11 bitrate=N/A speed=18.3x    frame= 9977 fps=440 q=-0.0 size=N/A time=00:06:56.12 bitrate=N/A speed=18.3x    frame=10227 fps=441 q=-0.0 size=N/A time=00:07:06.55 bitrate=N/A speed=18.4x    frame=10512 fps=443 q=-0.0 size=N/A time=00:07:18.43 bitrate=N/A speed=18.5x    frame=10736 fps=443 q=-0.0 size=N/A time=00:07:27.78 bitrate=N/A speed=18.5x    frame=10968 fps=443 q=-0.0 size=N/A time=00:07:37.45 bitrate=N/A speed=18.5x    frame=11208 fps=444 q=-0.0 size=N/A time=00:07:47.46 bitrate=N/A speed=18.5x    frame=11456 fps=444 q=-0.0 size=N/A time=00:07:57.81 bitrate=N/A speed=18.5x    frame=11727 fps=446 q=-0.0 size=N/A time=00:08:09.11 bitrate=N/A speed=18.6x    frame=11981 fps=447 q=-0.0 size=N/A time=00:08:19.70 bitrate=N/A speed=18.6x    frame=12246 fps=448 q=-0.0 size=N/A time=00:08:30.76 bitrate=N/A speed=18.7x    frame=12483 fps=448 q=-0.0 size=N/A time=00:08:40.64 bitrate=N/A speed=18.7x    frame=12723 fps=449 q=-0.0 size=N/A time=00:08:50.65 bitrate=N/A speed=18.7x    frame=12980 fps=450 q=-0.0 size=N/A time=00:09:01.37 bitrate=N/A speed=18.8x    frame=13245 fps=451 q=-0.0 size=N/A time=00:09:12.42 bitrate=N/A speed=18.8x    frame=13526 fps=452 q=-0.0 size=N/A time=00:09:24.14 bitrate=N/A speed=18.9x    frame=13792 fps=453 q=-0.0 size=N/A time=00:09:35.24 bitrate=N/A speed=18.9x    frame=14074 fps=455 q=-0.0 size=N/A time=00:09:47.00 bitrate=N/A speed=  19x    frame=14340 fps=456 q=-0.0 size=N/A time=00:09:58.09 bitrate=N/A speed=  19x    frame=14605 fps=457 q=-0.0 size=N/A time=00:10:09.15 bitrate=N/A speed=  19x    frame=14834 fps=456 q=-0.0 size=N/A time=00:10:18.70 bitrate=N/A speed=  19x    frame=15086 fps=457 q=-0.0 size=N/A time=00:10:29.21 bitrate=N/A speed=19.1x    frame=15319 fps=457 q=-0.0 size=N/A time=00:10:38.92 bitrate=N/A speed=  19x    frame=15568 fps=457 q=-0.0 size=N/A time=00:10:49.31 bitrate=N/A speed=19.1x    frame=15815 fps=457 q=-0.0 size=N/A time=00:10:59.61 bitrate=N/A speed=19.1x    frame=16057 fps=458 q=-0.0 size=N/A time=00:11:09.71 bitrate=N/A speed=19.1x    frame=16332 fps=459 q=-0.0 size=N/A time=00:11:21.18 bitrate=N/A speed=19.1x    frame=16549 fps=458 q=-0.0 size=N/A time=00:11:30.23 bitrate=N/A speed=19.1x    frame=16806 fps=459 q=-0.0 size=N/A time=00:11:40.95 bitrate=N/A speed=19.1x    frame=17054 fps=459 q=-0.0 size=N/A time=00:11:51.29 bitrate=N/A speed=19.1x    frame=17296 fps=459 q=-0.0 size=N/A time=00:12:01.38 bitrate=N/A speed=19.2x    frame=17588 fps=461 q=-0.0 size=N/A time=00:12:13.56 bitrate=N/A speed=19.2x    frame=17856 fps=461 q=-0.0 size=N/A time=00:12:24.74 bitrate=N/A speed=19.2x    frame=18045 fps=460 q=-0.0 size=N/A time=00:12:32.62 bitrate=N/A speed=19.2x    frame=18281 fps=460 q=-0.0 size=N/A time=00:12:42.47 bitrate=N/A speed=19.2x    frame=18491 fps=460 q=-0.0 size=N/A time=00:12:51.22 bitrate=N/A speed=19.2x    frame=18679 fps=458 q=-0.0 size=N/A time=00:12:59.06 bitrate=N/A speed=19.1x    frame=18857 fps=457 q=-0.0 size=N/A time=00:13:06.49 bitrate=N/A speed=19.1x    frame=19063 fps=456 q=-0.0 size=N/A time=00:13:15.08 bitrate=N/A speed=  19x    frame=19287 fps=456 q=-0.0 size=N/A time=00:13:24.42 bitrate=N/A speed=  19x    frame=19536 fps=456 q=-0.0 size=N/A time=00:13:34.81 bitrate=N/A speed=  19x    frame=19831 fps=458 q=-0.0 size=N/A time=00:13:47.11 bitrate=N/A speed=19.1x    frame=20073 fps=458 q=-0.0 size=N/A time=00:13:57.21 bitrate=N/A speed=19.1x    frame=20305 fps=458 q=-0.0 size=N/A time=00:14:06.88 bitrate=N/A speed=19.1x    frame=20532 fps=457 q=-0.0 size=N/A time=00:14:16.35 bitrate=N/A speed=19.1x    frame=20805 fps=458 q=-0.0 size=N/A time=00:14:27.74 bitrate=N/A speed=19.1x    frame=21048 fps=458 q=-0.0 size=N/A time=00:14:37.87 bitrate=N/A speed=19.1x    frame=21213 fps=457 q=-0.0 size=N/A time=00:14:44.75 bitrate=N/A speed=19.1x    frame=21418 fps=456 q=-0.0 size=N/A time=00:14:53.30 bitrate=N/A speed=  19x    frame=21646 fps=456 q=-0.0 size=N/A time=00:15:02.81 bitrate=N/A speed=  19x    frame=21901 fps=457 q=-0.0 size=N/A time=00:15:13.45 bitrate=N/A speed=  19x    frame=22141 fps=457 q=-0.0 size=N/A time=00:15:23.46 bitrate=N/A speed=  19x    frame=22392 fps=457 q=-0.0 size=N/A time=00:15:33.93 bitrate=N/A speed=19.1x    frame=22641 fps=457 q=-0.0 size=N/A time=00:15:44.31 bitrate=N/A speed=19.1x    frame=22906 fps=458 q=-0.0 size=N/A time=00:15:55.37 bitrate=N/A speed=19.1x    frame=23160 fps=458 q=-0.0 size=N/A time=00:16:05.96 bitrate=N/A speed=19.1x    frame=23407 fps=458 q=-0.0 size=N/A time=00:16:16.26 bitrate=N/A speed=19.1x    frame=23697 fps=459 q=-0.0 size=N/A time=00:16:28.36 bitrate=N/A speed=19.2x    frame=23959 fps=460 q=-0.0 size=N/A time=00:16:39.28 bitrate=N/A speed=19.2x    frame=24258 fps=461 q=-0.0 size=N/A time=00:16:51.76 bitrate=N/A speed=19.2x    frame=24516 fps=461 q=-0.0 size=N/A time=00:17:02.52 bitrate=N/A speed=19.2x    frame=24724 fps=461 q=-0.0 size=N/A time=00:17:11.19 bitrate=N/A speed=19.2x    frame=24934 fps=460 q=-0.0 size=N/A time=00:17:19.95 bitrate=N/A speed=19.2x    frame=25201 fps=461 q=-0.0 size=N/A time=00:17:31.09 bitrate=N/A speed=19.2x    frame=25475 fps=462 q=-0.0 size=N/A time=00:17:42.51 bitrate=N/A speed=19.3x    frame=25748 fps=462 q=-0.0 size=N/A time=00:17:53.90 bitrate=N/A speed=19.3x    frame=26038 fps=463 q=-0.0 size=N/A time=00:18:06.00 bitrate=N/A speed=19.3x    frame=26298 fps=463 q=-0.0 size=N/A time=00:18:16.84 bitrate=N/A speed=19.3x    frame=26527 fps=463 q=-0.0 size=N/A time=00:18:26.39 bitrate=N/A speed=19.3x    frame=26767 fps=463 q=-0.0 size=N/A time=00:18:36.40 bitrate=N/A speed=19.3x    frame=27027 fps=464 q=-0.0 size=N/A time=00:18:47.25 bitrate=N/A speed=19.3x    frame=27309 fps=464 q=-0.0 size=N/A time=00:18:59.01 bitrate=N/A speed=19.4x    frame=27579 fps=465 q=-0.0 size=N/A time=00:19:10.27 bitrate=N/A speed=19.4x    frame=27846 fps=465 q=-0.0 size=N/A time=00:19:21.41 bitrate=N/A speed=19.4x    frame=28113 fps=466 q=-0.0 size=N/A time=00:19:32.54 bitrate=N/A speed=19.4x    frame=28374 fps=466 q=-0.0 size=N/A time=00:19:43.43 bitrate=N/A speed=19.4x    frame=28634 fps=467 q=-0.0 size=N/A time=00:19:54.27 bitrate=N/A speed=19.5x    frame=28886 fps=467 q=-0.0 size=N/A time=00:20:04.78 bitrate=N/A speed=19.5x    frame=29122 fps=467 q=-0.0 size=N/A time=00:20:14.63 bitrate=N/A speed=19.5x    frame=29381 fps=467 q=-0.0 size=N/A time=00:20:25.43 bitrate=N/A speed=19.5x    frame=29620 fps=467 q=-0.0 size=N/A time=00:20:35.40 bitrate=N/A speed=19.5x    frame=29860 fps=467 q=-0.0 size=N/A time=00:20:45.41 bitrate=N/A speed=19.5x    frame=30100 fps=467 q=-0.0 size=N/A time=00:20:55.42 bitrate=N/A speed=19.5x    frame=30347 fps=467 q=-0.0 size=N/A time=00:21:05.72 bitrate=N/A speed=19.5x    frame=30595 fps=467 q=-0.0 size=N/A time=00:21:16.06 bitrate=N/A speed=19.5x    frame=30832 fps=467 q=-0.0 size=N/A time=00:21:25.95 bitrate=N/A speed=19.5x    frame=31019 fps=466 q=-0.0 size=N/A time=00:21:33.75 bitrate=N/A speed=19.4x    frame=31246 fps=466 q=-0.0 size=N/A time=00:21:43.21 bitrate=N/A speed=19.4x    frame=31539 fps=467 q=-0.0 size=N/A time=00:21:55.43 bitrate=N/A speed=19.5x    frame=31814 fps=467 q=-0.0 size=N/A time=00:22:06.90 bitrate=N/A speed=19.5x    frame=32094 fps=468 q=-0.0 size=N/A time=00:22:18.58 bitrate=N/A speed=19.5x    frame=32366 fps=468 q=-0.0 size=N/A time=00:22:29.93 bitrate=N/A speed=19.5x    frame=32618 fps=468 q=-0.0 size=N/A time=00:22:40.44 bitrate=N/A speed=19.5x    frame=32858 fps=468 q=-0.0 size=N/A time=00:22:50.45 bitrate=N/A speed=19.5x    frame=33108 fps=469 q=-0.0 size=N/A time=00:23:00.87 bitrate=N/A speed=19.5x    frame=33341 fps=468 q=-0.0 size=N/A time=00:23:10.59 bitrate=N/A speed=19.5x    frame=33570 fps=468 q=-0.0 size=N/A time=00:23:20.14 bitrate=N/A speed=19.5x    frame=33804 fps=468 q=-0.0 size=N/A time=00:23:29.90 bitrate=N/A speed=19.5x    frame=34009 fps=468 q=-0.0 size=N/A time=00:23:38.45 bitrate=N/A speed=19.5x    frame=34188 fps=467 q=-0.0 size=N/A time=00:23:45.92 bitrate=N/A speed=19.5x    frame=34422 fps=467 q=-0.0 size=N/A time=00:23:55.68 bitrate=N/A speed=19.5x    frame=34666 fps=467 q=-0.0 size=N/A time=00:24:05.86 bitrate=N/A speed=19.5x    [Parsed_psnr_10 @ 0000019d061c6880] PSNR y:48.568806 u:49.105661 v:49.344543 average:48.776250 min:37.443230 max:inf
[out#0/null @ 0000019d7a084500] video:14921KiB audio:271572KiB subtitle:0KiB other streams:0KiB global headers:0KiB muxing overhead: unknown
frame=34725 fps=467 q=-0.0 Lsize=N/A time=00:24:08.32 bitrate=N/A speed=19.5x    
